# xmcd
# 
# Track frame offsets:
#     150
#     13895
#     26041
#     38875
#     51111
#     63117
#     76611
#     88074
#     99557
#     109808
#     120907
#     132433
#     144054
#     156273
#     167681
#     181578
#     192340
#     206322
#     218856
#     233718
#     246960
#     261149
#     274203
#     285931
#     297748
# 
# Disc length: 4159
# 
# Revision: 2
# Processed by: cddbd v1.5.2PL0 Copyright (c) Steve Scherf et al.
# Submitted via: fre:ac v1.0.17
# 
DISCID=5c103d19
DTITLE=Muddy Waters - The Essence Of Muddy Waters, disc 2
DYEAR=2007
DGENRE=Blues
TTITLE0=I'm Ready
TTITLE1=Trouble No More
TTITLE2=I Just Want To Make Love To You
TTITLE3=I Can't Be Satisfied
TTITLE4=Long Distance Call
TTITLE5=Rollin' and Tumblin' pt.1
TTITLE6=Rollin' and Tumblin' pt.2
TTITLE7=Hard Days
TTITLE8=Mean Red Spider
TTITLE9=Muddy Jumps One
TTITLE10=Gypsy Woman
TTITLE11=Mean Disposition
TTITLE12=Good Lookin' Woman
TTITLE13=Little Annie Mae
TTITLE14=Screamin' and Cryin'
TTITLE15=Stand Here Tremblin'
TTITLE16=Where's My Woman Been?
TTITLE17=Train Fare Home Blues
TTITLE18=Streamline Woman
TTITLE19=Walking Blues
TTITLE20=Early Morning Blues
TTITLE21=Louisiana Blues
TTITLE22=Kindhearted Woman
TTITLE23=You're Gonna Miss Me (When I'm Dead and Gone)
TTITLE24=I Feel Like Going Home
EXTD=
EXTT0=
EXTT1=
EXTT2=
EXTT3=
EXTT4=
EXTT5=
EXTT6=
EXTT7=
EXTT8=
EXTT9=
EXTT10=
EXTT11=
EXTT12=
EXTT13=
EXTT14=
EXTT15=
EXTT16=
EXTT17=
EXTT18=
EXTT19=
EXTT20=
EXTT21=
EXTT22=
EXTT23=
EXTT24=
PLAYORDER=
